<svg width="52" height="52" viewBox="0 0 52 52" fill="none" xmlns="http://www.w3.org/2000/svg">
<g id="Group 13">
<circle id="Ellipse 2" cx="26" cy="26" r="25" stroke="black" stroke-width="2"/>
<path id="Vector" opacity="0.966" fill-rule="evenodd" clip-rule="evenodd" d="M39.46 16.9654C41.0929 16.9092 42.0084 17.6122 42.2066 19.0744C41.9705 20.5533 41.0296 21.2217 39.3837 21.0798C38.5653 20.9143 38.0058 20.4763 37.7053 19.7659C33.7889 19.7429 29.8724 19.7198 25.9561 19.6968C25.596 19.4687 25.4815 19.1576 25.6128 18.7633C25.7018 18.5904 25.8416 18.4637 26.0324 18.383C29.9233 18.3599 33.8143 18.3368 37.7053 18.3138C38.0715 17.6242 38.6564 17.1747 39.46 16.9654ZM39.6126 18.4175C40.2976 18.3585 40.6154 18.6351 40.5663 19.2473C40.3075 19.6599 39.9387 19.7637 39.46 19.5585C39.036 19.1253 39.0868 18.745 39.6126 18.4175Z" fill="black"/>
<path id="Vector_2" opacity="0.944" fill-rule="evenodd" clip-rule="evenodd" d="M25.7272 21.0452C28.0934 20.8876 30.0643 21.6021 31.64 23.1889C32.4015 24.0162 33.0882 24.892 33.6999 25.8165C34.6797 27.4081 35.6206 29.0216 36.5227 30.6569C37.3819 32.0999 38.3737 33.4598 39.4982 34.7367C40.0513 35.2383 40.6489 35.6878 41.2911 36.0851C42.0388 36.4105 42.789 36.7216 43.5417 37.0186C43.8479 37.6623 43.6318 38.0541 42.8932 38.1942C40.5551 37.6536 38.7114 36.4781 37.362 34.6676C36.987 34.1954 36.631 33.7114 36.2939 33.2155C35.0283 31.129 33.7822 29.0315 32.5555 26.9229C31.8502 25.8175 31.0237 24.7917 30.0759 23.8458C28.5593 22.6117 26.8045 22.2198 24.8117 22.6702C23.5724 23.0329 22.5679 23.6898 21.7981 24.641C20.657 26.0808 19.6524 27.6021 18.7845 29.2048C19.4519 29.2433 20.1132 29.3009 20.7681 29.3777C21.0632 29.6308 21.1522 29.9419 21.0352 30.3112C20.9461 30.3919 20.8572 30.4725 20.7681 30.5532C19.8345 30.6427 18.8935 30.6888 17.9453 30.6915C17.0331 32.3115 15.9777 33.8443 14.7791 35.2899C13.4936 36.7891 11.8279 37.7572 9.78187 38.1942C9.1198 38.1019 8.87818 37.7561 9.05709 37.1569C9.09256 37.058 9.15619 36.9774 9.24782 36.9149C10.793 36.5268 12.1027 35.8007 13.1769 34.7367C14.2982 33.4771 15.2774 32.1287 16.1142 30.6915C15.4785 30.6454 14.8426 30.6454 14.2069 30.6915C13.5482 31.9 12.5056 32.2918 11.0789 31.867C10.0098 31.3236 9.59022 30.5054 9.82002 29.4123C10.272 28.2562 11.1748 27.7606 12.5284 27.9256C13.3487 28.093 13.9082 28.531 14.2069 29.2394C15.1235 29.297 16.039 29.2854 16.9535 29.2048C17.6843 27.9491 18.4345 26.7044 19.2041 25.4708C19.9937 24.2596 20.9728 23.1878 22.1414 22.2553C23.2163 21.5428 24.4116 21.1394 25.7272 21.0452ZM11.7655 29.3431C12.483 29.2902 12.7882 29.5783 12.681 30.2075C12.4248 30.5904 12.0687 30.6826 11.6129 30.4841C11.1889 30.0509 11.2397 29.6706 11.7655 29.3431Z" fill="black"/>
<path id="Vector_3" opacity="0.984" fill-rule="evenodd" clip-rule="evenodd" d="M23.0714 38.1312C23.0562 30.1777 23.0714 22.2241 23.1168 14.2706C23.491 13.9906 23.9603 13.9279 24.5247 14.0825C24.6654 14.1477 24.7713 14.2283 24.8426 14.3243C24.9032 22.242 24.9032 30.1598 24.8426 38.0775C24.545 38.3789 24.106 38.4774 23.5255 38.3731C23.3564 38.2997 23.2051 38.219 23.0714 38.1312Z" fill="black"/>
</g>
</svg>
