<?xml version="1.0" encoding="UTF-8" standalone="no"?>
<!-- Created with Inkscape (http://www.inkscape.org/) -->

<svg
   width="14.962348mm"
   height="14.962347mm"
   viewBox="0 0 14.962348 14.962347"
   version="1.1"
   id="svg5"
   sodipodi:docname="lambda_l.svg"
   inkscape:export-filename="threshold_blue.svg"
   inkscape:export-xdpi="96"
   inkscape:export-ydpi="96"
   xml:space="preserve"
   xmlns:inkscape="http://www.inkscape.org/namespaces/inkscape"
   xmlns:sodipodi="http://sodipodi.sourceforge.net/DTD/sodipodi-0.dtd"
   xmlns="http://www.w3.org/2000/svg"
   xmlns:svg="http://www.w3.org/2000/svg"><sodipodi:namedview
     id="namedview7"
     pagecolor="#ffffff"
     bordercolor="#000000"
     borderopacity="0.25"
     inkscape:showpageshadow="2"
     inkscape:pageopacity="0.0"
     inkscape:pagecheckerboard="0"
     inkscape:deskcolor="#d1d1d1"
     inkscape:document-units="mm"
     showgrid="false" /><defs
     id="defs2" /><g
     inkscape:label="Layer 1"
     inkscape:groupmode="layer"
     id="layer1"
     transform="translate(-44.47765,-120.39964)"><path
       style="fill:#91c8e4;fill-opacity:1;fill-rule:evenodd;stroke-width:0.264583"
       id="path472"
       sodipodi:type="arc"
       sodipodi:cx="51.958824"
       sodipodi:cy="127.88081"
       sodipodi:rx="7.481174"
       sodipodi:ry="7.481174"
       sodipodi:start="0"
       sodipodi:end="6.2825089"
       sodipodi:open="true"
       sodipodi:arc-type="arc"
       d="m 59.439998,127.88081 a 7.481174,7.481174 0 0 1 -7.479909,7.48118 7.481174,7.481174 0 0 1 -7.482438,-7.47865 7.481174,7.481174 0 0 1 7.477378,-7.4837 7.481174,7.481174 0 0 1 7.484967,7.47611" /><g
       style="fill:none"
       id="g1324"
       transform="matrix(0.2852459,0,0,0.2852459,51.498037,123.47413)"><path
         opacity="0.984"
         fill-rule="evenodd"
         clip-rule="evenodd"
         d="M 0.0713637,24.1312 C 0.0561945,16.1777 0.0713637,8.22414 0.116781,0.270588 0.491016,-0.00939751 0.960264,-0.072113 1.52471,0.0824966 1.66541,0.147738 1.77132,0.228348 1.84262,0.324327 1.90321,8.24203 1.90321,16.1598 1.84262,24.0775 1.54496,24.3789 1.10596,24.4774 0.525533,24.3731 0.3564,24.2997 0.205071,24.219 0.0713637,24.1312 Z"
         fill="#000000"
         id="path1315" /></g><g
       style="fill:none"
       id="g1346"
       transform="matrix(0.2852459,0,0,0.2852459,51.566311,124.75928)"><path
         opacity="0.966"
         fill-rule="evenodd"
         clip-rule="evenodd"
         d="M 14.46,0.965402 C 16.0929,0.909184 17.0084,1.61222 17.2066,3.07445 16.9705,4.55333 16.0296,5.22173 14.3837,5.07976 13.5653,4.91429 13.0058,4.4763 12.7053,3.76593 8.7889,3.74291 4.87245,3.71981 0.956073,3.69679 0.595968,3.46873 0.481527,3.15756 0.612752,2.76327 0.701787,2.5904 0.841633,2.46365 1.03237,2.38296 4.92333,2.35993 8.8143,2.33683 12.7053,2.31381 13.0715,1.62418 13.6564,1.17472 14.46,0.965402 Z m 0.1526,1.452128 c 0.685,-0.05905 1.0028,0.21754 0.9537,0.82979 C 15.3075,3.65993 14.9387,3.76365 14.46,3.55849 14.036,3.12534 14.0868,2.74502 14.6126,2.41753 Z"
         fill="#000000"
         id="path1337" /></g><g
       style="fill:none"
       id="g1357"
       transform="matrix(0.2852459,0,0,0.2852459,47.056808,125.42006)"><path
         opacity="0.944"
         fill-rule="evenodd"
         clip-rule="evenodd"
         d="M 16.7272,0.0452393 C 19.0934,-0.11242 21.0643,0.602096 22.64,2.18886 c 0.7615,0.82729 1.4482,1.70313 2.0599,2.62766 0.9798,1.5916 1.9207,3.20505 2.8228,4.84042 0.8592,1.44296 1.851,2.80286 2.9755,4.07976 0.5531,0.5016 1.1507,0.9511 1.7929,1.3484 0.7477,0.3254 1.4979,0.6365 2.2506,0.9335 0.3062,0.6437 0.0901,1.0355 -0.6485,1.1756 C 31.5551,16.6536 29.7114,15.4781 28.362,13.6676 27.987,13.1954 27.631,12.7114 27.2939,12.2155 26.0283,10.129 24.7822,8.03146 23.5555,5.9229 22.8502,4.81748 22.0237,3.79173 21.0759,2.84577 19.5593,1.61167 17.8045,1.2198 15.8117,1.67024 14.5724,2.03293 13.5679,2.68984 12.7981,3.64098 11.657,5.0808 10.6524,6.60208 9.7845,8.20481 c 0.6674,0.03845 1.3287,0.09605 1.9836,0.17288 0.2951,0.25308 0.3841,0.56425 0.2671,0.93351 -0.0891,0.08069 -0.178,0.16132 -0.2671,0.24202 C 10.8345,9.6427 9.89353,9.68882 8.94528,9.69152 8.03311,11.3115 6.97774,12.8443 5.7791,14.2899 4.49363,15.7891 2.82791,16.7572 0.781874,17.1942 0.119799,17.1019 -0.121822,16.7561 0.0570861,16.1569 0.0925626,16.058 0.156191,15.9774 0.24782,15.9149 1.79299,15.5268 3.10272,14.8007 4.17693,13.7367 5.29822,12.4771 6.27737,11.1287 7.11423,9.69152 6.47848,9.64539 5.84265,9.64539 5.2069,9.69152 4.54818,10.9 3.50555,11.2918 2.07886,10.867 1.00984,10.3236 0.590225,9.50537 0.820021,8.41226 1.27198,7.25616 2.17476,6.76057 3.52844,6.92556 4.34875,7.09297 4.90821,7.53096 5.2069,8.23939 6.12349,8.29699 7.03901,8.28544 7.95346,8.20481 8.68428,6.94907 9.43455,5.70439 10.2041,4.47077 10.9937,3.25963 11.9728,2.18782 13.1414,1.25535 14.2163,0.542766 15.4116,0.13942 16.7272,0.0452393 Z M 2.7655,8.34311 C 3.48304,8.29021 3.78822,8.57829 3.68103,9.20747 3.42476,9.59042 3.06869,9.6826 2.61292,9.48407 2.18888,9.05092 2.23969,8.6706 2.7655,8.34311 Z"
         fill="#000000"
         id="path1348" /></g></g></svg>
