<?xml version="1.0" encoding="UTF-8" standalone="no"?>
<!-- Created with Inkscape (http://www.inkscape.org/) -->

<svg
   width="21.340431mm"
   height="21.191895mm"
   viewBox="0 0 21.340431 21.191895"
   version="1.1"
   id="svg1332"
   xmlns:inkscape="http://www.inkscape.org/namespaces/inkscape"
   xmlns:sodipodi="http://sodipodi.sourceforge.net/DTD/sodipodi-0.dtd"
   xmlns="http://www.w3.org/2000/svg"
   xmlns:svg="http://www.w3.org/2000/svg">
  <sodipodi:namedview
     id="namedview1334"
     pagecolor="#ffffff"
     bordercolor="#000000"
     borderopacity="0.25"
     inkscape:showpageshadow="2"
     inkscape:pageopacity="0.0"
     inkscape:pagecheckerboard="0"
     inkscape:deskcolor="#d1d1d1"
     inkscape:document-units="mm"
     showgrid="false" />
  <defs
     id="defs1329" />
  <g
     inkscape:label="Layer 1"
     inkscape:groupmode="layer"
     id="layer1"
     transform="translate(-68.094339,-147.31738)">
    <g
       id="g1308"
       transform="translate(29.922069,14.202023)">
      <path
         style="fill:none;stroke:#ffffff;stroke-width:1.01063;stroke-linecap:butt;stroke-linejoin:miter;stroke-dasharray:none;stroke-opacity:1"
         d="m 49.453706,149.08848 2.774695,-0.0209"
         id="path1016"
         sodipodi:nodetypes="cc" />
      <path
         style="fill:none;stroke:#ffffff;stroke-width:1;stroke-linecap:butt;stroke-linejoin:miter;stroke-dasharray:none;stroke-opacity:1"
         d="m 38.175704,149.03129 5.198993,0.0357"
         id="path1016-9"
         sodipodi:nodetypes="cc" />
      <path
         style="fill:none;stroke:#ffffff;stroke-width:1;stroke-linecap:butt;stroke-linejoin:miter;stroke-dasharray:none;stroke-opacity:1"
         d="m 54.214311,149.07826 5.296849,-0.0163"
         id="path1016-3" />
      <path
         style="fill:none;stroke:#ffffff;stroke-width:1;stroke-linecap:butt;stroke-linejoin:miter;stroke-dasharray:none;stroke-opacity:1"
         d="m 43.072076,149.05946 c 3.60726,0.10927 3.211014,-3.22639 3.371316,-15.34859"
         id="path1018"
         sodipodi:nodetypes="cc" />
      <path
         style="fill:none;stroke:#ffffff;stroke-width:1;stroke-linecap:butt;stroke-linejoin:miter;stroke-dasharray:none;stroke-opacity:1"
         d="m 49.56598,149.10581 c -3.467689,-0.78488 -3.053597,-5.98308 -3.076475,-15.37819"
         id="path1018-8"
         sodipodi:nodetypes="cc" />
      <path
         style="fill:none;stroke:#ffffff;stroke-width:1;stroke-linecap:butt;stroke-linejoin:miter;stroke-dasharray:none;stroke-opacity:1"
         d="m 53.179516,145.63589 c -0.106508,1.01239 -0.06426,3.42297 -0.985852,3.43158"
         id="path1131"
         sodipodi:nodetypes="cc" />
      <path
         style="fill:none;stroke:#ffffff;stroke-width:1;stroke-linecap:butt;stroke-linejoin:miter;stroke-dasharray:none;stroke-opacity:1"
         d="m 53.219629,145.76128 c 0.103242,0.99703 0.151207,3.30894 1.044547,3.31743"
         id="path1131-2"
         sodipodi:nodetypes="cc" />
      <path
         style="fill:#ff0000;fill-opacity:0;fill-rule:evenodd;stroke:#ffffff;stroke-width:1.03989;stroke-dasharray:none;stroke-opacity:1"
         id="path2259"
         sodipodi:type="arc"
         sodipodi:cx="48.731899"
         sodipodi:cy="145.49501"
         sodipodi:rx="8.3418989"
         sodipodi:ry="8.2922897"
         sodipodi:start="0"
         sodipodi:end="6.2825089"
         sodipodi:open="true"
         sodipodi:arc-type="arc"
         d="m 57.073798,145.49501 a 8.3418989,8.2922897 0 0 1 -8.340488,8.29229 8.3418989,8.2922897 0 0 1 -8.343309,-8.28949 8.3418989,8.2922897 0 0 1 8.337666,-8.29509 8.3418989,8.2922897 0 0 1 8.346129,8.28668" />
      <path
         style="fill:#ffffff;fill-opacity:1;fill-rule:evenodd;stroke-width:0.260161"
         id="path3992"
         sodipodi:type="arc"
         sodipodi:cx="53.191727"
         sodipodi:cy="145.72589"
         sodipodi:rx="0.51157057"
         sodipodi:ry="0.68111968"
         sodipodi:start="0"
         sodipodi:end="6.2825089"
         sodipodi:open="true"
         sodipodi:arc-type="arc"
         d="m 53.703297,145.72589 a 0.51157057,0.68111968 0 0 1 -0.511484,0.68112 0.51157057,0.68111968 0 0 1 -0.511657,-0.68089 0.51157057,0.68111968 0 0 1 0.511311,-0.68135 0.51157057,0.68111968 0 0 1 0.51183,0.68066" />
      <path
         style="fill:#ffffff;fill-opacity:1;fill-rule:evenodd;stroke-width:0.263296"
         id="path3992-6"
         sodipodi:type="arc"
         sodipodi:cx="46.463314"
         sodipodi:cy="133.79648"
         sodipodi:rx="0.52397293"
         sodipodi:ry="0.68111968"
         sodipodi:start="0"
         sodipodi:end="6.2825089"
         sodipodi:open="true"
         sodipodi:arc-type="arc"
         d="m 46.987287,133.79648 a 0.52397293,0.68111968 0 0 1 -0.523884,0.68112 0.52397293,0.68111968 0 0 1 -0.524062,-0.68089 0.52397293,0.68111968 0 0 1 0.523707,-0.68135 0.52397293,0.68111968 0 0 1 0.524239,0.68066" />
    </g>
  </g>
</svg>
