<svg width="52" height="52" viewBox="0 0 52 52" fill="none" xmlns="http://www.w3.org/2000/svg">
<path opacity="0.921" fill-rule="evenodd" clip-rule="evenodd" d="M20.0061 16.0028C20.9222 15.9615 21.533 16.3764 21.8386 17.2475C22.0094 17.7252 22.1592 18.2093 22.288 18.6996C22.9136 21.5477 23.5936 24.3828 24.3279 27.2049C24.501 27.8045 24.7315 28.3808 25.0194 28.9337C25.4724 29.6996 26.0831 29.8725 26.8519 29.4523C27.2213 28.9911 27.4864 28.4725 27.6471 27.8964C27.9394 26.7502 28.2851 25.6207 28.6843 24.5081C28.9929 23.6694 29.5577 23.0816 30.3785 22.7448C31.211 22.546 31.914 22.7649 32.4875 23.4017C33.0063 24.1628 33.375 24.9926 33.5939 25.8911C34.0228 27.7963 34.4147 29.7094 34.7694 31.6305C34.9619 32.6927 35.3308 33.6838 35.8758 34.6039C36.2073 35.0049 36.5991 35.3276 37.0513 35.572C37.29 36.1624 37.0941 36.4506 36.4636 36.4363C35.6453 35.9868 35.0114 35.353 34.562 34.5347C34.2763 33.8621 34.0459 33.1706 33.8705 32.4602C33.4482 30.1875 32.9642 27.9286 32.4184 25.6837C32.2449 24.9552 31.8876 24.3444 31.3466 23.8512C30.7811 23.6402 30.3317 23.7899 29.9982 24.3007C29.8599 24.5773 29.7216 24.8539 29.5833 25.1305C29.2021 26.4014 28.8103 27.6691 28.4077 28.9337C28.2014 29.4388 27.9133 29.8883 27.5434 30.2821C25.8758 31.1552 24.6427 30.7288 23.8439 29.0028C23.5953 28.4183 23.3879 27.819 23.2216 27.2049C22.4743 24.2388 21.7597 21.2654 21.0779 18.2847C20.9777 17.946 20.8394 17.6233 20.663 17.3166C20.5653 17.1843 20.4385 17.0921 20.2827 17.04C19.8802 17.2469 19.6152 17.5696 19.4875 18.0081C18.9699 19.6407 18.4628 21.2771 17.9662 22.9177C17.6253 23.9114 17.0836 24.7758 16.3412 25.5108C15.8389 25.8814 15.2742 26.0773 14.6471 26.0985C13.9773 25.9923 13.8275 25.6581 14.1976 25.0959C15.1721 25.0871 15.8982 24.6607 16.3758 23.8166C16.6831 23.2634 16.9367 22.6871 17.1364 22.0879C17.5606 20.4468 18.0677 18.8333 18.6577 17.2475C18.9479 16.6456 19.3973 16.2307 20.0061 16.0028Z" fill="black"/>
<path opacity="0.946" fill-rule="evenodd" clip-rule="evenodd" d="M12.2075 12.0205C12.537 11.9548 12.8021 12.047 13.0027 12.2971C13.0373 21.079 13.0488 29.8609 13.0373 38.6428C21.8423 38.6313 30.6472 38.6428 39.4521 38.6774C39.7788 38.8458 39.8825 39.1109 39.7633 39.4726C39.7057 39.5302 39.648 39.5879 39.5904 39.6455C30.4628 39.6916 21.3351 39.6916 12.2075 39.6455C12.1499 39.5879 12.0922 39.5302 12.0346 39.4726C11.9885 30.3911 11.9885 21.3095 12.0346 12.2279C12.1069 12.1675 12.1645 12.0984 12.2075 12.0205Z" fill="black"/>
<circle cx="26" cy="26" r="25" stroke="black" stroke-width="2"/>
</svg>
