<?xml version="1.0" encoding="UTF-8" standalone="no"?>
<!-- Created with Inkscape (http://www.inkscape.org/) -->

<svg
   width="14.962348mm"
   height="14.962347mm"
   viewBox="0 0 14.962348 14.962347"
   version="1.1"
   id="svg5"
   sodipodi:docname="lambda_l.svg"
   inkscape:export-filename="lambda_error_blue.svg"
   inkscape:export-xdpi="96"
   inkscape:export-ydpi="96"
   xml:space="preserve"
   xmlns:inkscape="http://www.inkscape.org/namespaces/inkscape"
   xmlns:sodipodi="http://sodipodi.sourceforge.net/DTD/sodipodi-0.dtd"
   xmlns="http://www.w3.org/2000/svg"
   xmlns:svg="http://www.w3.org/2000/svg"><sodipodi:namedview
     id="namedview7"
     pagecolor="#ffffff"
     bordercolor="#000000"
     borderopacity="0.25"
     inkscape:showpageshadow="2"
     inkscape:pageopacity="0.0"
     inkscape:pagecheckerboard="0"
     inkscape:deskcolor="#d1d1d1"
     inkscape:document-units="mm"
     showgrid="false" /><defs
     id="defs2" /><g
     inkscape:label="Layer 1"
     inkscape:groupmode="layer"
     id="layer1"
     transform="translate(-44.47765,-120.39964)"><path
       style="fill:#91c8e4;fill-opacity:1;fill-rule:evenodd;stroke-width:0.264583"
       id="path472"
       sodipodi:type="arc"
       sodipodi:cx="51.958824"
       sodipodi:cy="127.88081"
       sodipodi:rx="7.481174"
       sodipodi:ry="7.481174"
       sodipodi:start="0"
       sodipodi:end="6.2825089"
       sodipodi:open="true"
       sodipodi:arc-type="arc"
       d="m 59.439998,127.88081 a 7.481174,7.481174 0 0 1 -7.479909,7.48118 7.481174,7.481174 0 0 1 -7.482438,-7.47865 7.481174,7.481174 0 0 1 7.477378,-7.4837 7.481174,7.481174 0 0 1 7.484967,7.47611" /><g
       style="fill:none"
       id="g1415"
       transform="matrix(0.29662008,0,0,0.29662008,48.217854,123.6433)"><path
         opacity="0.946"
         fill-rule="evenodd"
         clip-rule="evenodd"
         d="M 0.207464,0.0204668 C 0.537028,-0.0451555 0.802145,0.04702 1.00268,0.297063 1.03725,9.07898 1.0488,17.8609 1.03725,26.6428 c 8.80501,-0.0115 17.60995,0 26.41485,0.0346 0.3267,0.1684 0.4304,0.4335 0.3112,0.7952 -0.0576,0.0576 -0.1153,0.1153 -0.1729,0.1729 -9.1276,0.0461 -18.25528,0.0461 -27.382936,0 -0.057601,-0.0576 -0.1152712,-0.1153 -0.1728722,-0.1729 -0.0461224,-9.0815 -0.0461224,-18.16315 0,-27.244686 C 0.106852,0.167547 0.164453,0.0983977 0.207464,0.0204668 Z"
         fill="#000000"
         id="path1406" /></g><g
       style="fill:none"
       id="g1437"
       transform="matrix(0.29662008,0,0,0.29662008,48.459584,124.44087)"><path
         opacity="0.921"
         fill-rule="evenodd"
         clip-rule="evenodd"
         d="M 6.00613,0.00280188 C 6.92222,-0.03848 7.53301,0.376414 7.83858,1.24748 c 0.1708,0.47775 0.32057,0.9618 0.44946,1.45213 0.6256,2.84811 1.30554,5.68321 2.03986,8.50529 0.1731,0.5996 0.4036,1.1759 0.6915,1.7288 0.453,0.7659 1.0637,0.9388 1.8325,0.5186 0.3694,-0.4612 0.6345,-0.9798 0.7952,-1.5559 0.2923,-1.1462 0.638,-2.27567 1.0372,-3.38828 0.3086,-0.83871 0.8734,-1.42647 1.6942,-1.7633 0.8325,-0.19887 1.5355,0.02013 2.109,0.65692 0.5188,0.76105 0.8875,1.59084 1.1064,2.48936 0.4289,1.9052 0.8208,3.8183 1.1755,5.7394 0.1925,1.0622 0.5614,2.0533 1.1064,2.9734 0.3315,0.401 0.7233,0.7237 1.1755,0.9681 0.2387,0.5904 0.0428,0.8786 -0.5877,0.8643 C 21.6453,19.9868 21.0114,19.353 20.562,18.5347 20.2763,17.8621 20.0459,17.1706 19.8705,16.4602 19.4482,14.1875 18.9642,11.9286 18.4184,9.68365 18.2449,8.95524 17.8876,8.34438 17.3466,7.85121 16.7811,7.64016 16.3317,7.78994 15.9982,8.30067 c -0.1383,0.2766 -0.2766,0.55319 -0.4149,0.82979 -0.3812,1.27094 -0.773,2.53864 -1.1756,3.80324 -0.2063,0.5051 -0.4944,0.9546 -0.8643,1.3484 -1.6676,0.8731 -2.9007,0.4467 -3.6995,-1.2793 C 9.59531,12.4183 9.38786,11.819 9.22156,11.2049 8.47426,8.23879 7.75975,5.26538 7.07794,2.28472 6.97774,1.94596 6.83944,1.62331 6.66305,1.31663 6.56534,1.18428 6.43852,1.09211 6.28273,1.04004 5.88021,1.24693 5.61516,1.56958 5.48751,2.00812 4.96986,3.64066 4.4628,5.27714 3.96624,6.9177 3.62526,7.91144 3.08362,8.7758 2.34124,9.51078 1.83887,9.88142 1.2742,10.0773 0.647088,10.0985 -0.0226887,9.99233 -0.172535,9.65807 0.19762,9.09589 1.17214,9.0871 1.8982,8.66066 2.37581,7.81663 2.68311,7.26337 2.93668,6.68708 3.13645,6.08791 3.56061,4.4468 4.06768,2.83334 4.65773,1.24748 4.94788,0.64561 5.39734,0.230717 6.00613,0.00280188 Z"
         fill="#000000"
         id="path1428" /></g></g></svg>
