<?xml version="1.0" encoding="UTF-8" standalone="no"?>
<!-- Created with Inkscape (http://www.inkscape.org/) -->

<svg
   width="15.9485"
   height="15.991271"
   viewBox="0 0 4.2197071 4.2310237"
   version="1.1"
   id="svg5"
   xml:space="preserve"
   xmlns="http://www.w3.org/2000/svg"
   xmlns:svg="http://www.w3.org/2000/svg"><defs
     id="defs2"><linearGradient
       id="linearGradient2980"><stop
         style="stop-color:#403455;stop-opacity:1;"
         offset="0"
         id="stop2978" /></linearGradient></defs><g
     id="layer2"
     transform="translate(-0.01041552,-0.00318047)"><rect
       style="display:none;fill:#ededed;fill-opacity:1;stroke:none;stroke-width:0.161754;stroke-dasharray:none;stroke-opacity:1;paint-order:markers fill stroke"
       id="rect5383"
       width="4.2291989"
       height="4.2291989"
       x="0.0041341139"
       y="2.6225249e-09"
       ry="0" /></g><g
     id="layer3"
     transform="translate(-0.01041552,-0.00318047)"><ellipse
       style="fill:none;fill-opacity:1;fill-rule:evenodd;stroke:#403455;stroke-width:0.153184;stroke-dasharray:none;stroke-opacity:1"
       id="path1653"
       cx="2.1202691"
       cy="2.1186924"
       rx="2.0332615"
       ry="2.0389199" /></g><g
     id="layer5"
     transform="translate(-0.01041552,-0.00318047)"><path
       d="m 1.3741231,0.01008594 c -0.038287,0.01446253 -0.064032,0.03018424 -0.064032,0.03898778 0,0.0037721 -0.00528,0.01194841 -0.011224,0.01886517 -0.016502,0.01697854 -0.023764,0.09181014 -0.022443,0.2251234 0.00131,0.13897289 -0.00395,0.1540649 -0.053471,0.1515496 -0.013862,-6.2889e-4 -0.021125,0.003777 -0.028386,0.0176076 -0.00594,0.0106892 -0.00792,0.0188653 -0.00594,0.0188653 0.00265,0 -6.616e-4,0.005653 -0.00725,0.0125764 -0.0066,0.006912 -0.018484,0.0125764 -0.026405,0.0125764 -0.00859,0 -0.018484,0.003777 -0.022443,0.008801 -0.00463,0.005036 -0.017824,0.0113187 -0.029046,0.0132011 -0.011882,0.002506 -0.025745,0.008183 -0.031026,0.0125776 -0.015843,0.0119541 -0.031686,0.0157203 -0.034986,0.007542 -0.00528,-0.0132011 -0.010571,-0.001259 -0.013195,0.0289263 -0.00131,0.0163497 -0.00463,0.0314418 -0.00725,0.0339573 -0.002,0.001889 -0.00395,0.008801 -0.00395,0.0138402 0,0.005653 -0.00528,0.0150873 -0.011225,0.020123 -0.006598,0.005653 -0.0151831,0.0150873 -0.0191434,0.0220091 -0.006597,0.0100716 -0.008583,0.0106892 -0.0184837,0.003147 C 0.958286,0.66532619 0.954323,0.65778459 0.9563,0.65338409 0.960931,0.64142999 0.948376,0.63577649 0.936497,0.64520109 c -0.006597,0.005036 -0.007924,0.00943 -0.002645,0.0144637 0.009242,0.008801 0.008583,0.0138402 -0.003953,0.025153 -0.007256,0.007542 -0.0171633,0.008801 -0.0349863,0.006283 -0.017824,-0.002506 -0.0303653,-6.2901e-4 -0.0422481,0.006924 -0.009242,0.005653 -0.019803,0.0106892 -0.0224438,0.0106892 -0.002645,0 -0.0118816,0.002506 -0.0204645,0.005653 -0.0145222,0.005036 -0.0145222,0.006283 -0.003957,0.0213797 0.0125388,0.0182358 0.0191435,0.0194936 0.0250843,0.006283 0.001986,-0.005036 0.007924,-0.007542 0.0131957,-0.005653 0.005938,0.001889 0.0165026,-0.002506 0.0250847,-0.0113187 0.0171621,-0.0163497 0.0468679,-0.0226374 0.0409276,-0.008183 -0.001986,0.004395 -0.009901,0.00943 -0.017824,0.0106892 -0.007924,0.001259 -0.0171633,0.008183 -0.0211246,0.0150873 -0.0105697,0.020123 -0.0237644,0.0339573 -0.0297058,0.0308123 -0.002645,-0.001259 -0.0125392,0.005653 -0.0224438,0.0163497 -0.009898,0.0100716 -0.0250843,0.0213809 -0.0336671,0.0245247 -0.00924,0.003147 -0.016503,0.0106892 -0.016503,0.0169781 0,0.0194936 -0.0112247,0.028298 -0.0369675,0.0314417 -0.0303654,0.003147 -0.0402678,0.0100716 -0.0455488,0.0333278 -0.002642,0.0119541 -0.00924,0.0182358 -0.0198033,0.020123 -0.0277248,0.005653 -0.033006,-0.003777 -0.0171628,-0.0289263 0.0198032,-0.030184 0.039608,-0.0433888 0.0514897,-0.0339573 0.0105675,0.008172 0.0118818,0.006924 0.0178239,-0.0125776 0.006598,-0.020123 -0.0125388,-0.0257824 -0.0297057,-0.008172 -0.007256,0.006924 -0.0198032,0.0132011 -0.0277248,0.0132011 -0.007925,0 -0.0204645,0.004394 -0.0270651,0.00943 -0.007256,0.005036 -0.0198032,0.00943 -0.0277249,0.00943 -0.007256,0 -0.0237648,0.0100716 -0.0363077,0.0220091 -0.0125388,0.0119541 -0.0257454,0.0220091 -0.0303654,0.0220091 -0.003957,0 -0.005941,0.005036 -0.003957,0.0119541 0.001984,0.008171 -0.001984,0.0157203 -0.0138624,0.0226374 -0.0171642,0.0106892 -0.0237662,0.028298 -0.0105676,0.028298 0.0112247,0 0.007256,0.0113187 -0.00924,0.0276684 -0.008583,0.009428 -0.0211243,0.0163496 -0.028386,0.0163496 -0.006598,0 -0.0184837,0.00378 -0.0257454,0.0088 -0.0105676,0.00818 -0.0112247,0.011319 -0.003957,0.020751 0.004625,0.00628 0.0112247,0.018865 0.0151834,0.028298 0.003957,0.010072 0.0131958,0.017608 0.0211243,0.018865 0.0178239,0.0025 0.0257454,0.036471 0.008583,0.036471 -0.005941,0 -0.0105676,0.00378 -0.0105676,0.0088 0,0.00504 -0.007925,0.01069 -0.0171627,0.012577 -0.0158446,0.00378 -0.0165044,0.00565 -0.0118817,0.03207 0.0033,0.024524 0.001984,0.030813 -0.0132094,0.047791 -0.00924,0.010689 -0.0171628,0.023895 -0.0171628,0.030185 0,0.010689 -0.0257454,0.035843 -0.0343269,0.033327 -0.004625,-0.00126 -0.016503,0.015721 -0.0178239,0.025153 -6.6157e-4,0.00315 -6.6157e-4,0.00565 -0.001319,0.00628 0,0.00126 -0.001984,0.0088 -0.0033,0.017607 -0.001325,0.00818 -0.005283,0.016978 -0.008583,0.018866 -0.009898,0.00628 -0.0231049,0.034586 -0.0264053,0.059111 -0.002642,0.01384 -0.007256,0.025782 -0.0112247,0.027039 -0.00924,0.00315 -0.0178239,-0.020122 -0.0158432,-0.041502 6.6008e-4,-0.011954 -0.001321,-0.01384 -0.009898,-0.010689 -0.005941,0.00188 -0.0145222,0.00378 -0.0198032,0.00378 -0.004625,0 -0.009898,0.00565 -0.0118817,0.012577 -0.002642,0.00943 -0.00924,0.012577 -0.0237648,0.012577 -0.016503,0 -0.0224437,0.00378 -0.0277248,0.016978 -0.0033,0.00943 -0.005941,0.022638 -0.005283,0.029554 0.002642,0.020751 -0.006598,0.040245 -0.0211243,0.044646 -0.0105676,0.00315 -0.0125387,0.010072 -0.0125387,0.038359 0,0.022638 -0.002642,0.033958 -0.007925,0.033958 -0.004625,0 -0.0171628,0.00754 -0.0277249,0.01635 -0.0178239,0.015087 -0.0191435,0.020123 -0.0184837,0.052821 6.6007e-4,0.025153 -0.001984,0.038987 -0.008583,0.044018 -0.005941,0.00504 -0.0098976,0.018866 -0.0098976,0.037729 0,0.023895 -0.0026421,0.030813 -0.01253876,0.033327 -0.01782393,0.0044 -0.02574548,0.041502 -0.01122461,0.051564 0.01253877,0.00943 0.01386247,0.02201 0.0019843,0.02201 -0.01319578,0 -0.02574548,0.037101 -0.028386,0.081749 -0.0026419,0.055967 -0.0065978,0.082378 -0.01386246,0.1006142 -0.0039559,0.0088 -0.0085833,0.03207 -0.01122462,0.052821 -0.0019843,0.020123 -0.0059414,0.039617 -0.0085833,0.043389 -0.00395593,0.00565 -0.00659783,0.082378 -0.00858327,0.2433597 -0.00132035,0.063512 0.00462624,0.1194795 0.01386248,0.1295405 0.0065978,0.00754 0.0052838,0.010689 -0.0046262,0.018236 -0.00725541,0.00504 -0.00923974,0.0088 -0.00395594,0.00943 0.00395594,0 0.00792571,0.00754 0.00792571,0.017607 0,0.00943 0.0032995,0.020751 0.0072554,0.024524 0.0052838,0.00504 0.0052838,0.00818 0,0.010689 -0.0098973,0.00628 -0.0092397,0.030813 6.6157e-4,0.040245 0.0052838,0.00504 0.0085833,0.033327 0.0098973,0.081749 6.6158e-4,0.040245 0.0046262,0.091811 0.0085833,0.1144484 0.0039559,0.022638 0.0085833,0.050936 0.01056759,0.062885 0.0059414,0.045905 0.0112246,0.066029 0.01980328,0.074204 0.0052838,0.0044 0.0092397,0.013202 0.0092397,0.018866 0,0.00628 0.0059414,0.021379 0.01319578,0.033958 0.04290826,0.076718 0.05743191,0.1062735 0.05347036,0.1081596 -0.002642,0.00188 -0.0171627,0.0044 -0.0323462,0.00628 -0.0158446,0.00126 -0.03366853,0.00628 -0.03960933,0.011319 -0.0059414,0.0044 -0.01518342,0.010689 -0.01980329,0.014464 -0.02046445,0.01384 -0.04686844,0.043389 -0.04356803,0.04842 0.0019843,0.0025 0,0.010072 -0.00395593,0.016978 -0.00725541,0.013201 -0.00131825,0.03207 0.01650299,0.053452 0.0092397,0.011319 0.01980328,0.012577 0.12410355,0.014464 0.0620517,6.277e-4 0.11552215,0.00126 0.1181627,0.00188 0.002642,0 0.006598,0.013202 0.00924,0.029554 0.007255,0.049051 0.0211243,0.071688 0.0712944,0.1188499 0.0257454,0.024525 0.0686538,0.067286 0.0950592,0.094326 0.0264053,0.027669 0.0653534,0.066656 0.0871375,0.087408 0.021784,0.020751 0.039608,0.040245 0.039608,0.042761 0,0.00565 0.016503,0.023267 0.021784,0.023267 0.001984,0 0.0290459,0.023895 0.0607322,0.053453 0.0323462,0.029554 0.0805355,0.066656 0.10826173,0.082378 0.0277248,0.01635 0.0514895,0.031442 0.0521495,0.034586 0.001318,0.00315 0.006597,0.00565 0.0112241,0.00565 0.004631,0 0.017824,0.00692 0.0283863,0.01572 0.0112252,0.0088 0.0224438,0.01572 0.0264051,0.01572 0.003304,0 0.009901,0.0044 0.0145224,0.00943 0.004631,0.00504 0.0131957,0.00943 0.019803,0.00943 0.005938,0 0.0198031,0.00692 0.0303653,0.01572 0.009901,0.00818 0.0270649,0.016978 0.0369675,0.018865 0.009901,0.0025 0.0184837,0.00692 0.0184837,0.010072 0,0.00315 0.004632,0.00565 0.0105704,0.00565 0.00594,0 0.023104,0.00818 0.038949,0.018236 0.015843,0.010072 0.034986,0.020123 0.042249,0.022638 0.00792,0.00188 0.013862,0.00628 0.013862,0.00943 0,0.00315 0.01254,0.0088 0.028386,0.013202 0.030365,0.00754 0.094398,0.034586 0.1102411,0.046535 0.00528,0.00378 0.023104,0.011954 0.039608,0.018235 0.05149,0.019494 0.09506,0.036472 0.1234439,0.04842 0.015843,0.00692 0.035646,0.011954 0.044228,0.011954 0.00924,0 0.017824,0.0025 0.019803,0.00565 0.002,0.00315 0.011882,0.00754 0.021784,0.00943 0.010569,0.0025 0.037627,0.011319 0.061393,0.018866 0.023764,0.00818 0.066673,0.02201 0.095718,0.030813 0.04819,0.014464 0.066013,0.017607 0.1452283,0.027668 0.043568,0.00565 0.2495288,0.00628 0.2660319,6.279e-4 0.026404,-0.0088 0.042906,-0.011954 0.1630508,-0.029555 0.021784,-0.00378 0.056111,-0.00943 0.075914,-0.013202 0.019803,-0.00378 0.043568,-0.00818 0.052811,-0.00943 0.00924,-0.00126 0.029705,-0.00565 0.046207,-0.00943 0.016502,-0.00378 0.04489,-0.00818 0.062713,-0.00943 0.018484,-0.00126 0.055451,-0.00754 0.082516,-0.013202 0.027065,-0.00565 0.057432,-0.011954 0.067994,-0.013202 0.0099,-0.00188 0.017824,-0.00628 0.017824,-0.00943 0,-0.00315 0.00265,-0.0044 0.0066,-0.00188 0.0066,0.00378 0.073275,-0.014464 0.079216,-0.022008 0.00331,-0.0044 0.00858,-0.00692 0.1155222,-0.057852 0.036308,-0.017608 0.077895,-0.039617 0.092418,-0.049051 0.014522,-0.00943 0.036308,-0.019494 0.04819,-0.022009 0.011882,-0.00188 0.024424,-0.00943 0.027725,-0.01635 0.00395,-0.00628 0.019144,-0.017608 0.033666,-0.024524 0.056771,-0.028298 0.138627,-0.08678 0.2191628,-0.1584669 0.022443,-0.019494 0.046207,-0.037729 0.052811,-0.039617 0.00594,-0.0025 0.011224,-0.00628 0.011224,-0.0088 0,-0.00943 0.09506,-0.099356 0.1221242,-0.1157061 0.014522,-0.0088 0.038949,-0.028298 0.05413,-0.043389 0.058092,-0.057852 0.1076006,-0.1119329 0.1076006,-0.1175923 0,-0.00378 0.00859,-0.011319 0.019143,-0.016978 0.011225,-0.00628 0.018485,-0.01384 0.0165,-0.01635 -0.002,-0.00315 0.00858,-0.016978 0.023106,-0.030813 0.015182,-0.014464 0.025744,-0.028298 0.023763,-0.030813 -0.002,-0.00315 6.761e-4,-0.00754 0.00528,-0.01069 0.00528,-0.0025 0.013863,-0.01384 0.019803,-0.023895 0.00528,-0.010689 0.017824,-0.025783 0.027066,-0.033958 0.019803,-0.017607 0.021121,-0.02704 0.0066,-0.038359 -0.00528,-0.00504 -0.012539,-0.013202 -0.015845,-0.018865 -0.00528,-0.010072 -0.002,-0.011319 0.034986,-0.011319 0.111562,6.278e-4 0.2660317,-0.00754 0.3294041,-0.01635 0.038291,-0.00565 0.072613,-0.010072 0.075914,-0.00943 0.015182,0.0025 0.023106,-0.00315 0.041587,-0.028926 0.023763,-0.032699 0.030365,-0.082378 0.015182,-0.1100467 -0.00464,-0.0088 -0.00858,-0.018865 -0.00858,-0.022638 0,-0.014464 -0.021122,-0.014464 -0.1254246,6.277e-4 -0.030365,0.0044 -0.1683329,0.0044 -0.1861563,0 -0.022444,-0.00565 -0.022444,-0.00818 -0.0013,-0.062883 0.00924,-0.024524 0.019143,-0.052821 0.022444,-0.062885 0.00328,-0.01069 0.00924,-0.024524 0.011882,-0.031442 0.021123,-0.045276 0.035649,-0.1100469 0.058752,-0.2609672 0.0066,-0.046534 0.00858,-0.084894 0.01057,-0.2798321 0.002,-0.154065 0,-0.2075162 -0.0066,-0.2288965 -0.00727,-0.022638 -0.00727,-0.028926 -6.76e-4,-0.033327 0.0066,-0.00378 0.00594,-0.00504 -0.0013,-0.00504 -0.00594,0 -0.00727,-0.00188 -0.00328,-0.00504 0.00727,-0.00504 0.00792,-0.069802 6.762e-4,-0.098728 -0.00266,-0.010689 -0.00594,-0.025153 -0.00792,-0.033328 -0.0013,-0.00754 -0.00858,-0.018865 -0.015845,-0.024524 -0.011882,-0.010071 -0.011882,-0.024524 6.762e-4,-0.017608 0.00464,0.00315 0.00395,-0.043389 -0.0013,-0.053452 -6.762e-4,-0.00188 -0.002,-0.00628 -0.00266,-0.00943 -6.76e-4,-0.00378 -0.00464,-0.014464 -0.00858,-0.023895 -0.00464,-0.010072 -0.00792,-0.020751 -0.00792,-0.023895 0,-0.00315 -0.00266,-0.010689 -0.00594,-0.016978 -0.00337,-0.00565 -0.011293,-0.026406 -0.017235,-0.045271 -0.0066,-0.018865 -0.017163,-0.040245 -0.023104,-0.047162 -0.0066,-0.00692 -0.011881,-0.021379 -0.011881,-0.031442 0,-0.010689 -0.00594,-0.031442 -0.013197,-0.047162 -0.00727,-0.01572 -0.015182,-0.037729 -0.017162,-0.04842 -0.00266,-0.010072 -0.0099,-0.024524 -0.016505,-0.031442 -0.0066,-0.00628 -0.013863,-0.022638 -0.0165,-0.036472 -0.00528,-0.026411 -0.034986,-0.08678 -0.04423,-0.089924 -0.00328,-0.00126 -0.00594,-0.0088 -0.00594,-0.016978 0,-0.0088 -0.00594,-0.018236 -0.013863,-0.022009 -0.00727,-0.0044 -0.017824,-0.01635 -0.022444,-0.02704 -0.00528,-0.011319 -0.017163,-0.02704 -0.026405,-0.035214 -0.00924,-0.00818 -0.016501,-0.019494 -0.016501,-0.025153 0,-0.014464 -0.01254,-0.025782 -0.023763,-0.021381 -0.00528,0.00188 -0.00924,-6.278e-4 -0.00924,-0.00692 0,-0.00565 -0.00528,-0.01635 -0.011882,-0.022638 -0.0066,-0.00692 -0.018484,-0.024524 -0.026405,-0.039617 -0.00792,-0.015087 -0.020464,-0.032699 -0.027725,-0.038987 -0.00725,-0.00628 -0.01321,-0.01384 -0.01321,-0.017607 0,-0.00628 -0.022444,-0.033958 -0.064692,-0.078605 -0.015183,-0.01635 -0.038286,-0.0440182 -0.050171,-0.0609963 -0.01254,-0.0176076 -0.038949,-0.0465349 -0.059412,-0.0647707 -0.020464,-0.0182358 -0.036968,-0.0345856 -0.036968,-0.0364717 0,-0.003777 -0.025745,-0.0276684 -0.030365,-0.0276684 -0.011882,0 -0.095719,-0.0729457 -0.089777,-0.078605 0.00265,-0.002506 -0.00331,-0.002506 -0.013196,0 -0.013862,0.003147 -0.017824,0.001889 -0.021784,-0.008801 -0.002,-0.007542 -0.0066,-0.0119541 -0.00924,-0.0106892 -0.00265,0.001889 -0.015183,-0.005036 -0.027725,-0.0144637 -0.01254,-0.00943 -0.031025,-0.0220091 -0.042248,-0.0276684 -0.010571,-0.005036 -0.032346,-0.0213808 -0.04753,-0.0352162 -0.021784,-0.0207514 -0.031026,-0.025153 -0.043569,-0.0226374 -0.021125,0.005036 -0.035646,-0.0106892 -0.020464,-0.0220091 0.00924,-0.007542 0.00858,-0.00943 -0.00528,-0.0163497 -0.017824,-0.00943 -0.042909,-0.0113187 -0.046209,-0.003147 -6.602e-4,0.002506 -0.00858,0.007542 -0.016502,0.00943 -0.011882,0.003777 -0.015183,0.001889 -0.015183,-0.007542 0,-0.006924 -0.00792,-0.0157203 -0.017824,-0.020123 -0.023104,-0.0106892 -0.081195,-0.0132011 -0.081195,-0.003777 0,0.003777 -0.00331,0.001889 -0.00725,-0.004395 -0.00331,-0.005653 -0.011882,-0.0106892 -0.018484,-0.0106892 -0.015843,0 -0.033667,-0.0264107 -0.029705,-0.042131 0.00331,-0.0106892 0,-0.0119541 -0.023104,-0.0106892 -0.018484,6.2877e-4 -0.025084,-0.001259 -0.023104,-0.006283 0.002,-0.004407 -6.602e-4,-0.0113187 -0.00594,-0.0157215 -0.013862,-0.0106892 -0.029705,0.008172 -0.017824,0.0213809 0.011881,0.0138402 -0.00991,0.020123 -0.025085,0.007542 -0.00594,-0.005036 -0.019803,-0.0106892 -0.031026,-0.0119541 -0.016502,-0.001259 -0.020465,-0.005036 -0.021783,-0.0207514 -0.00331,-0.0276684 -0.011224,-0.0314417 -0.033006,-0.0163497 -0.023764,0.0157215 -0.023764,0.0157215 -0.036968,0.003147 -0.0099,-0.008801 -0.01057,-0.008801 -0.01057,6.2887e-4 0,0.005653 -0.00265,0.008172 -0.0066,0.006295 -0.00331,-0.001889 -0.0066,-0.0138343 -0.0066,-0.0257824 0,-0.025153 -0.00395,-0.0264107 -0.021125,-0.007542 -0.01057,0.0119482 -0.014523,0.0125764 -0.025084,0.006295 -0.00725,-0.003777 -0.016502,-0.006295 -0.021125,-0.004407 -0.00463,0.001889 -0.012539,6.2877e-4 -0.017824,-0.002518 -0.00792,-0.005036 -0.00792,-0.007542 -0.00131,-0.0157203 0.00792,-0.008801 0.00594,-0.0100598 -0.014522,-0.0100598 -0.01254,0 -0.033666,0.004395 -0.046207,0.00943 -0.015183,0.006295 -0.025084,0.006912 -0.027725,0.003147 -0.00265,-0.003777 -0.00725,-0.004407 -0.011224,-0.002518 -0.00463,0.003147 -0.00594,-0.001259 -0.00265,-0.0119482 0.00395,-0.0157215 0.00265,-0.0163497 -0.033666,-0.0207514 -0.021124,-0.001889 -0.040928,-0.005659 -0.04489,-0.008175 -0.00331,-0.001886 -0.023764,-0.003773 -0.04423,-0.004402 -0.021125,-6.2884e-4 -0.04225,-0.003773 -0.04753,-0.008175 -0.0066,-0.005659 -0.01057,-0.005031 -0.017824,0.003144 -0.00725,0.008803 -0.00924,0.008803 -0.015843,6.2885e-4 -0.00528,-0.007546 -0.022443,-0.010061 -0.069974,-0.0113187 -0.073274,-0.001257 -0.1458885,0.001257 -0.129386,0.005031 0.00594,0.001886 0.011224,0.005659 0.011224,0.008803 0,0.009432 -0.024424,0.006289 -0.036308,-0.004401 -0.00725,-0.007548 -0.016502,-0.008807 -0.031686,-0.00629 -0.029046,0.005659 -0.1029809,0.010061 -0.1696533,0.0106904 h -0.056117 l -0.023104,0.0282976 c -0.017163,0.0207514 -0.027724,0.0276685 -0.040927,0.0276685 -0.019143,0 -0.025084,0.008801 -0.00991,0.0144625 0.00463,0.002518 0.00265,0.005036 -0.0066,0.007542 -0.00725,0.002518 -0.015843,0.0100598 -0.017163,0.0169781 -0.002,0.006912 -0.0066,0.0106892 -0.011225,0.008172 -0.00528,-0.003147 -0.00331,-0.0106892 0.00528,-0.0245246 0.011225,-0.0176076 0.011225,-0.0213809 0.00265,-0.0339573 -0.00528,-0.007542 -0.015183,-0.0138343 -0.021783,-0.0138343 -0.00725,0 -0.01254,-0.002518 -0.01254,-0.006295 0,-0.003147 -0.00858,-0.0144625 -0.019805,-0.0251534 -0.010569,-0.0106904 -0.019803,-0.0257823 -0.020464,-0.0333284 0,-0.007546 -0.002,-0.0194939 -0.00331,-0.0264111 -0.002,-0.006917 -0.00595,-0.0352148 -0.00924,-0.0628837 C 1.4850806,0.23011111 1.4771654,0.18357701 1.4718872,0.15402166 1.4659512,0.12446646 1.4586917,0.0867363 1.4553848,0.06975765 1.4520558,0.0527969 1.4454581,0.0345606 1.4401749,0.02890113 1.4348907,0.02324173 1.4289497,0.01380902 1.4269794,0.00752066 c -0.00528,-0.01320618 -0.011882,-0.01257659 -0.05281,0.00251557 z m 0.7967753,0.43829889 c 0.002,0.003147 0.029045,0.006295 0.060732,0.006912 0.031687,6.2781e-4 0.061392,0.003777 0.064692,0.006295 0.0066,0.005036 0.080536,0.0138343 0.1326863,0.0157214 0.011224,6.2889e-4 0.024424,0.003777 0.029705,0.006912 0.00528,0.003147 0.019803,0.006295 0.032346,0.007542 0.011882,0.001259 0.027725,0.005036 0.033667,0.008172 0.00594,0.003147 0.019143,0.004407 0.027724,0.003147 0.0099,-0.001889 0.020465,6.2888e-4 0.025085,0.006283 0.00463,0.005036 0.017824,0.00943 0.029046,0.00943 0.011882,0 0.023764,0.002506 0.027725,0.005653 0.00331,0.003147 0.015183,0.006924 0.025745,0.008172 0.017162,0.001889 0.019803,0.005036 0.021784,0.0226374 0.00131,0.0150873 0.00528,0.020123 0.011225,0.0176076 0.00594,-0.001889 0.00463,0.003777 -0.00463,0.0188653 -0.016502,0.0270402 -0.027065,0.0270402 -0.040927,-6.2864e-4 -0.0099,-0.0188653 -0.013197,-0.0213808 -0.023764,-0.0157203 -0.01254,0.006283 -0.039608,-0.003147 -0.039608,-0.0138402 0,-0.002506 -0.01057,-0.002506 -0.023764,-6.2888e-4 -0.013195,0.001889 -0.025745,0.001259 -0.028386,-0.002506 -0.0066,-0.0100716 -0.04489,-0.020123 -0.060072,-0.0163497 -0.00858,0.001889 -0.019144,-0.001259 -0.028386,-0.008801 -0.00924,-0.007542 -0.026405,-0.0125776 -0.04687,-0.0132011 -0.019803,-0.001259 -0.039607,-0.006924 -0.050831,-0.0144637 -0.01057,-0.006912 -0.019803,-0.00943 -0.022443,-0.006295 -0.00265,0.004394 -0.00991,0.004394 -0.021783,0 -0.011882,-0.004395 -0.018484,-0.004395 -0.019803,0 -0.00131,0.003777 -0.0099,0.006912 -0.018484,0.006912 -0.011224,0 -0.015843,-0.003777 -0.015843,-0.0113187 0,-0.0264107 -0.04687,-0.0408744 -0.067995,-0.0207514 -0.01057,0.0100598 -0.024424,0.008801 -0.024424,-0.002518 0,-0.0113187 -0.011225,-0.0125764 -0.014522,-0.001889 -0.002,0.004407 -0.00725,0.005665 -0.015843,0.001889 -0.01254,-0.005036 -0.01254,-0.005036 6.601e-4,-0.008172 0.00725,-0.001259 0.015843,-0.006295 0.018484,-0.0113187 0.00594,-0.00943 0.021784,-0.0119482 0.027065,-0.003777 z M 1.9649383,0.56346149 c 0.00859,0.004395 0.042907,0.006283 0.090437,0.005036 0.1511694,-0.003777 0.2653718,0.003777 0.2983783,0.020123 0.00594,0.003147 0.029705,0.006924 0.05215,0.008172 0.022443,0.001889 0.04489,0.006283 0.04951,0.0100716 0.00528,0.004394 0.01254,0.005653 0.015843,0.003147 0.00395,-0.001889 0.015843,6.2781e-4 0.026405,0.006283 0.011225,0.005036 0.028386,0.00943 0.039607,0.00943 0.01057,0 0.021784,0.003147 0.023764,0.006283 0.00265,0.003777 0.00725,0.005036 0.010569,0.002506 0.00331,-0.001889 0.013862,6.2782e-4 0.022443,0.006283 0.00858,0.005653 0.025084,0.0100716 0.035646,0.0100716 0.011224,0 0.038949,0.008172 0.061393,0.0188653 0.022443,0.0100716 0.045549,0.0188653 0.050831,0.0188653 0.00594,6.2782e-4 0.019803,0.005653 0.031025,0.0113187 0.011225,0.005653 0.037627,0.0188653 0.059412,0.0295545 0.021125,0.0100716 0.041588,0.0226374 0.044229,0.0264107 0.00265,0.004395 0.00858,0.008172 0.013196,0.008172 0.00792,0 0.022443,0.006924 0.067333,0.0314417 0.04753,0.0264107 0.099019,0.0503058 0.1076007,0.0503058 0.00528,0 0.025084,0.0132012 0.044889,0.0289263 0.020465,0.016978 0.039607,0.0276684 0.04489,0.0257824 0.0099,-0.003777 0.017163,0.007542 0.017163,0.0264107 0,0.006283 0.00924,0.0220091 0.019803,0.035215 0.011224,0.0132011 0.019803,0.0276684 0.019803,0.0320701 0,0.004399 0.00265,0.008797 0.0066,0.0100715 0.013196,0.0044 0.096378,0.079863 0.143248,0.1307984 0.099679,0.1075312 0.133346,0.1477764 0.1564505,0.1886507 0.00858,0.01572 0.021784,0.033958 0.029702,0.040245 0.00792,0.00692 0.013863,0.015721 0.013863,0.019494 0,0.0088 0.030365,0.067286 0.047526,0.091181 0.00595,0.0088 0.014521,0.029554 0.019143,0.047162 0.00464,0.016978 0.013195,0.042761 0.019803,0.056596 0.035649,0.077348 0.045548,0.099985 0.045548,0.106903 0,0.00378 0.00727,0.023895 0.015845,0.044646 0.00858,0.020123 0.020466,0.057854 0.025744,0.083007 0.00595,0.025782 0.015182,0.051564 0.021124,0.057854 0.00792,0.0088 0.00858,0.011954 0.002,0.01384 -0.0066,0.0025 -0.0066,0.00628 0,0.020123 0.00395,0.00943 0.00792,0.025782 0.00792,0.037101 0,0.011319 0.00464,0.026411 0.00991,0.033958 0.00528,0.00692 0.011225,0.028298 0.013196,0.047162 0.00528,0.055967 0.00858,0.076089 0.017162,0.108789 0.00858,0.036472 0.011882,0.2924089 0.00464,0.4118879 -0.00594,0.093697 -0.017824,0.1892796 -0.025087,0.1980834 -0.00266,0.00315 -0.0066,0.028298 -0.00924,0.055337 -0.00266,0.031442 -0.01057,0.061627 -0.020466,0.083007 -0.00924,0.018865 -0.0165,0.037729 -0.0165,0.042132 0,0.01635 -0.044891,0.094326 -0.060732,0.1043875 -0.015182,0.010689 -0.017163,0.010689 -0.2132204,0.013825 -0.029046,6.287e-4 -0.079216,0.00378 -0.112222,0.00754 -0.042249,0.0044 -0.081195,0.0044 -0.1353268,-6.287e-4 -0.041588,-0.00378 -0.086476,-0.00692 -0.099679,-0.00692 -0.013196,6.288e-4 -0.044889,-0.00504 -0.070634,-0.011319 -0.030365,-0.00754 -0.050171,-0.010072 -0.056771,-0.00628 -0.017824,0.00943 -0.053471,-0.023895 -0.080536,-0.076089 -0.01321,-0.025783 -0.029046,-0.054079 -0.034986,-0.062885 -0.0066,-0.0088 -0.019144,-0.02704 -0.027725,-0.040245 -0.016502,-0.025153 -0.048849,-0.044646 -0.061392,-0.037729 -0.00858,0.00504 -0.040268,0.03207 -0.079875,0.067913 -0.015183,0.01384 -0.04951,0.051564 -0.075914,0.083636 -0.025745,0.03207 -0.055451,0.062256 -0.064692,0.066656 -0.058752,0.028298 -0.1821954,0.038359 -0.3577897,0.028926 -0.1155222,-0.00628 -0.225764,-0.028298 -0.2587704,-0.052193 -0.037628,-0.02704 -0.091098,-0.075461 -0.091098,-0.083007 0,-0.00378 -0.00725,-0.01384 -0.016502,-0.022009 -0.00924,-0.00818 -0.016502,-0.020751 -0.016502,-0.028298 0,-0.00754 -0.00725,-0.020123 -0.015843,-0.027668 -0.00858,-0.00818 -0.017824,-0.023267 -0.019803,-0.033958 -0.00265,-0.011319 -0.012539,-0.031442 -0.022443,-0.045904 -0.034986,-0.049049 -0.066673,-0.1213656 -0.089777,-0.2068872 -0.00463,-0.017607 -0.013862,-0.040245 -0.019803,-0.050306 -0.00594,-0.010689 -0.01057,-0.033327 -0.01057,-0.050306 0,-0.017607 -0.00463,-0.039617 -0.00991,-0.049677 -0.00528,-0.00943 -0.00991,-0.023895 -0.00991,-0.031442 0,-0.00692 -0.00463,-0.033327 -0.010569,-0.057223 -0.00528,-0.024524 -0.013862,-0.072316 -0.019143,-0.1069018 -0.00528,-0.034586 -0.01254,-0.081121 -0.016502,-0.1037579 -0.0066,-0.039617 -0.021124,-0.1634976 -0.020465,-0.1823625 0,-0.00504 -0.00265,-0.036472 -0.00594,-0.069173 -0.00528,-0.05345 -0.00924,-0.173559 -0.016502,-0.5345107 -0.00131,-0.060369 -0.00528,-0.1295405 -0.00924,-0.1528072 -0.00395,-0.023267 -0.00725,-0.078605 -0.0066,-0.1226234 6.601e-4,-0.080491 6.601e-4,-0.1748165 -0.00131,-0.25593646 -6.602e-4,-0.0245247 -0.00395,-0.0490505 -0.00725,-0.0559676 -0.00395,-0.006283 -0.00792,-0.0465337 -0.0099,-0.0899237 l -0.00265,-0.078605 0.021784,0.004395 c 0.011882,0.002506 0.027726,0.008183 0.034989,0.0125776 0.010571,0.006283 0.019143,0.006924 0.04423,6.2876e-4 0.021124,-0.005653 0.033667,-0.005653 0.037626,-0.001889 0.00792,0.007542 0.1181627,0.006924 0.1821955,-0.001889 0.069974,-0.008801 0.1254244,-0.016978 0.1274051,-0.0182358 0.00131,0 0.00858,0.00253 0.015843,0.006283 z M 1.2652018,0.839521 c -6.599e-4,0.0880377 -0.00463,0.195568 -0.00792,0.2389578 -0.00725,0.089296 -0.011224,0.1936817 -0.016502,0.3930228 -0.00131,0.076089 -0.00528,0.1723011 -0.00725,0.2138043 -0.00265,0.041502 -0.00528,0.1050157 -0.00594,0.1414889 -0.002,0.080491 -0.00858,0.2854918 -0.013862,0.4087437 -0.002,0.050305 -0.00463,0.1546937 -0.0066,0.2326694 -0.00131,0.077977 -0.00528,0.1540648 -0.00859,0.1697858 -0.00331,0.01572 -0.00792,0.053452 -0.00991,0.084264 -0.00265,0.030184 -0.00858,0.075461 -0.013196,0.1006142 -0.00528,0.024524 -0.013195,0.064142 -0.017824,0.088666 -0.00991,0.047791 -0.04489,0.1050157 -0.073935,0.1194796 -0.032346,0.015721 -0.081856,0.028926 -0.12674404,0.032699 -0.0369675,0.00315 -0.0528103,0.00754 -0.0792155,0.024525 -0.0435684,0.02704 -0.0633726,0.028926 -0.26735213,0.023267 -0.16767272,-0.00504 -0.16833291,-0.00504 -0.17031325,-0.019494 -0.001321,-0.00754 6.6008e-4,-0.01384 0.004625,-0.01384 0.0131958,0 0.007925,-0.011954 -0.0125388,-0.029554 -0.0105676,-0.0088 -0.0198033,-0.020123 -0.0198033,-0.025153 0,-0.011954 -0.0198032,-0.039617 -0.0290458,-0.039617 -0.0105675,0 -0.0501701,-0.033328 -0.0501701,-0.042133 0,-0.01572 -0.0270651,-0.057223 -0.0501701,-0.076089 -0.0178239,-0.015087 -0.0231049,-0.023895 -0.021784,-0.037101 0.001319,-0.010072 0,-0.02138 -0.0033,-0.025783 -0.002642,-0.0044 -6.6253e-4,-0.0088 0.004613,-0.011319 0.007925,-0.0025 0.00924,-0.014464 0.007925,-0.055967 -0.001321,-0.028926 -0.005283,-0.058481 -0.00924,-0.065397 -0.003957,-0.00692 -0.007255,-0.018235 -0.007255,-0.025153 0,-0.00754 -0.002642,-0.013202 -0.006598,-0.013202 -0.0033,0 -0.006598,-0.00628 -0.006598,-0.014464 0,-0.00754 -0.003957,-0.02704 -0.00924,-0.042761 -0.005283,-0.01572 -0.0112247,-0.050936 -0.0138625,-0.078605 -0.002642,-0.02704 -0.007256,-0.052821 -0.00924,-0.055967 -0.002642,-0.00378 -0.005283,-0.01384 -0.005941,-0.023267 -6.6005e-4,-0.00943 -0.007256,-0.028298 -0.0145222,-0.041502 -0.007925,-0.01384 -0.0131958,-0.034586 -0.0125388,-0.045904 0.001321,-0.011954 -0.001984,-0.027668 -0.005941,-0.035214 -0.0105675,-0.018236 -0.009898,-0.040874 0.001984,-0.055967 0.0131958,-0.01635 0.0125388,-0.02138 -0.0033,-0.02138 -0.0125388,0 -0.0138625,-0.0025 -0.0231049,-0.046535 -0.001319,-0.00628 0,-0.017608 0.002642,-0.025153 0.002642,-0.00692 0.0033,-0.027669 6.5911e-4,-0.044646 -0.004625,-0.037729 0.008583,-0.068544 0.0277248,-0.062256 0.009898,0.00315 0.0118817,-6.287e-4 0.0118817,-0.023267 0,-0.018866 0.003957,-0.031442 0.0138624,-0.040875 0.0112247,-0.011319 0.0138625,-0.023267 0.0158432,-0.064769 6.6006e-4,-0.028298 0.005283,-0.05471 0.00924,-0.059739 0.003957,-0.0044 0.008583,-0.025153 0.009898,-0.045278 0.0033,-0.045276 0.008583,-0.05911 0.0231049,-0.05911 0.0257454,-6.287e-4 0.0415886,-0.023895 0.0468697,-0.068544 0.002642,-0.023895 0.007256,-0.047162 0.009898,-0.051564 0.007925,-0.011954 0.003957,-0.06414 -0.005283,-0.069802 -0.005283,-0.00315 -0.005283,-0.00504 -6.6021e-4,-0.00504 0.003957,0 0.0112247,-0.013202 0.016503,-0.030184 0.007925,-0.027669 0.028386,-0.069802 0.0382869,-0.076719 0.001984,-0.00188 0.0105675,-0.015721 0.0184837,-0.031442 0.007256,-0.01572 0.0244246,-0.049677 0.0376272,-0.075461 0.0131958,-0.025783 0.0389482,-0.063513 0.0567707,-0.083007 0.0184837,-0.019494 0.0330059,-0.037729 0.0330059,-0.039617 0,-0.0025 0.0105676,-0.01572 0.023105,-0.030184 0.0125388,-0.01384 0.0231049,-0.028298 0.0231049,-0.03207 0,-0.00692 0.039608,-0.035215 0.0495102,-0.035215 0.002642,0 0.0198046,-0.014464 0.0376272,-0.031442 0.0178239,-0.017608 0.0343269,-0.031442 0.0369675,-0.031442 0.002642,0 0.007925,-0.00943 0.0112247,-0.020751 0.005283,-0.015721 0.0112247,-0.020751 0.0264052,-0.023267 0.0171628,-0.0025 0.0198033,-0.00628 0.021784,-0.0251529 0.001321,-0.0163497 0.00924,-0.028298 0.0316864,-0.0490505 0.016503,-0.0144637 0.0343269,-0.0264107 0.0389482,-0.0264107 0.004625,0 0.0118818,-0.00943 0.016503,-0.0213797 0.005279,-0.0169781 0.009901,-0.0207514 0.019803,-0.0182358 0.0165026,0.004394 0.0165026,0.00943 0,0.0207514 -0.0131957,0.00943 -0.017824,0.025153 -0.007255,0.025153 0.003304,0 0.0105697,-0.006924 0.0165026,-0.0157203 0.005938,-0.008801 0.0145225,-0.0157203 0.0191434,-0.0157203 0.0151832,0 0.0732742,-0.0314417 0.0976992,-0.053452 0.0138628,-0.0119541 0.0363077,-0.0276684 0.0501705,-0.0345856 0.013862,-0.006924 0.041589,-0.028298 0.061393,-0.0477915 0.019803,-0.0188653 0.04423,-0.0364717 0.05413,-0.0383589 0.0099,-0.001889 0.021784,-0.007542 0.025745,-0.0119541 0.00395,-0.005036 0.014522,-0.008801 0.023104,-0.008801 0.00858,0 0.015843,-0.003147 0.015843,-0.006924 0,-0.003777 0.012539,-0.005653 0.031686,-0.004394 l 0.031025,0.001889 z m 0.1373068,0.7024103 c 0.00131,0.099985 0.020464,0.4678542 0.026405,0.5080997 0.00331,0.020751 0.00792,0.055965 0.00991,0.078605 0.00265,0.022638 0.00725,0.050936 0.010569,0.06414 0.00331,0.012577 0.00792,0.036472 0.00991,0.053452 0.013195,0.1207359 0.023764,0.1930527 0.032346,0.2282677 0.010571,0.041502 0.01254,0.049677 0.023764,0.088037 0.00331,0.011954 0.00924,0.035843 0.012539,0.053452 0.011882,0.06414 0.033667,0.1339421 0.050171,0.1641263 0.00991,0.016978 0.021784,0.044646 0.027065,0.062256 0.00528,0.016978 0.013196,0.035843 0.017824,0.040874 0.011882,0.014464 0.036308,0.059739 0.052151,0.09684 0.025745,0.059111 0.1320253,0.165384 0.2046401,0.2043718 0.029046,0.015087 0.1161819,0.036472 0.189457,0.045904 0.056111,0.00754 0.2831953,0.0088 0.3333651,0.00188 0.067993,-0.0088 0.1260841,-0.023895 0.1386269,-0.035214 0.00792,-0.00628 0.023104,-0.014464 0.034326,-0.018235 0.01057,-0.00378 0.023104,-0.01384 0.027065,-0.02201 0.00463,-0.0088 0.01057,-0.01572 0.014522,-0.01572 0.00331,0 0.01057,-0.00943 0.015183,-0.020751 0.00528,-0.011319 0.020465,-0.028926 0.033666,-0.038987 0.013196,-0.010072 0.031026,-0.032699 0.040268,-0.051564 0.019144,-0.040875 0.040267,-0.051564 0.058092,-0.031442 0.0066,0.00754 0.024425,0.037729 0.039608,0.067286 0.028386,0.055337 0.068655,0.1069017 0.1029797,0.1307983 0.053471,0.037101 0.2812149,0.055967 0.4528485,0.036471 0.075914,-0.00818 0.1848359,-0.0088 0.1934178,-6.288e-4 0.00725,0.00692 -0.091758,0.1113046 -0.1128817,0.1182217 -0.00595,0.0025 -0.013862,0.01069 -0.017163,0.018236 C 3.414603,3.390077 3.364431,3.436611 3.340667,3.446046 3.329442,3.450446 3.313602,3.461133 3.305681,3.469313 3.298431,3.476853 3.281257,3.490692 3.268054,3.499497 3.254859,3.508297 3.229106,3.528423 3.211283,3.544775 3.193459,3.561753 3.175637,3.574959 3.171676,3.574959 c -0.00331,0 -0.01254,0.00565 -0.019803,0.012577 C 3.145273,3.593816 3.124808,3.60703 3.107643,3.615834 3.09048,3.624634 3.067376,3.637213 3.056153,3.644132 3.045582,3.651052 3.020507,3.663626 3.002022,3.6718 2.982879,3.6806 2.967036,3.690665 2.967036,3.694438 c 0,0.0044 -0.00395,0.00628 -0.00792,0.0044 C 2.949206,3.695688 2.916867,3.709527 2.899044,3.724623 2.893104,3.729663 2.885849,3.732163 2.883861,3.730273 2.881211,3.728393 2.869999,3.732773 2.858777,3.740963 2.847552,3.748503 2.825111,3.759199 2.809267,3.763601 2.793424,3.768641 2.767678,3.780579 2.751175,3.790012 2.735332,3.799442 2.718169,3.807619 2.713548,3.807619 c -0.00528,0 -0.012539,0.00378 -0.016502,0.0088 -0.00395,0.00504 -0.021784,0.015087 -0.038949,0.022638 -0.053471,0.023267 -0.067333,0.03207 -0.067333,0.040874 0,0.012577 -0.037627,0.032699 -0.082516,0.042761 C 2.486464,3.927732 2.454117,3.937779 2.435635,3.944071 2.401309,3.956648 2.337936,3.967338 2.2574003,3.974884 c -0.025084,0.0025 -0.050831,0.00504 -0.056111,0.00628 -0.00528,6.288e-4 -0.027725,0.00504 -0.04951,0.0088 -0.063372,0.011954 -0.2389666,0.00818 -0.445587,-0.0088 C 1.6428203,3.976124 1.586049,3.972364 1.5801083,3.972364 1.5629363,3.973624 1.4599549,3.939037 1.443452,3.927088 1.4355307,3.920808 1.4137471,3.912624 1.3959222,3.908223 1.3774385,3.903823 1.3629164,3.898151 1.3629164,3.895021 c 0,-0.00315 -0.00792,-0.00565 -0.017824,-0.00565 -0.010569,0 -0.025745,-0.0044 -0.034986,-0.0088 -0.038949,-0.021379 -0.087138,-0.041502 -0.09836,-0.041502 -0.0066,0 -0.015843,-0.0044 -0.020465,-0.00943 -0.00463,-0.00504 -0.011882,-0.00943 -0.016502,-0.00943 -0.00725,0 -0.017824,-0.00754 -0.060071,-0.044018 C 1.1067868,3.769271 1.0935833,3.761104 1.0850032,3.757326 1.0764101,3.754176 1.0645382,3.748526 1.059258,3.744749 1.0539738,3.741599 1.0420959,3.735949 1.032853,3.732172 1.0104097,3.723992 0.99126452,3.711421 0.98466357,3.702616 0.98201846,3.698836 0.9708008,3.693816 0.9602385,3.691297 0.94966878,3.688797 0.93515376,3.680607 0.92855171,3.673061 0.92195497,3.664881 0.91006801,3.656711 0.90214652,3.654196 0.89422221,3.651696 0.88168159,3.642242 0.87442198,3.632816 0.86649767,3.624016 0.84669743,3.606405 0.82953319,3.593828 0.78795119,3.563644 0.65658537,3.4366193 0.65658537,3.4265582 c 0,-0.0044 -0.003957,-0.011954 -0.008583,-0.01635 -0.004625,-0.0044 -0.0211243,-0.023895 -0.0369675,-0.042761 -0.0158432,-0.018865 -0.0369674,-0.039617 -0.0475295,-0.045276 -0.0112247,-0.00628 -0.021784,-0.015721 -0.0237648,-0.02201 -0.005283,-0.013202 0.0151834,-0.027669 0.0336671,-0.023267 0.0244246,0.00565 0.21124118,0.00692 0.23830654,0.00126 0.0145222,-0.0025 0.0422485,-0.00754 0.061392,-0.011319 0.0475297,-0.00818 0.10364053,-0.028298 0.11948364,-0.043389 0.00726,-0.00692 0.0244246,-0.014464 0.0382869,-0.016978 0.029706,-0.00504 0.068655,-0.023895 0.1009998,-0.04842 0.036308,-0.027039 0.072613,-0.062883 0.079875,-0.076716 0.00595,-0.012577 0.01057,-0.02138 0.024424,-0.044018 0.00463,-0.00692 0.011224,-0.019494 0.015183,-0.028298 0.00395,-0.0088 0.0099,-0.020751 0.013195,-0.026411 0.00331,-0.00628 0.00594,-0.01635 0.00594,-0.023267 0,-0.00628 0.00463,-0.015087 0.0099,-0.019494 0.00528,-0.0044 0.00991,-0.012577 0.00991,-0.018865 0,-0.00628 0.00463,-0.022009 0.010569,-0.035215 0.00594,-0.012577 0.011882,-0.046534 0.013195,-0.074204 0.00131,-0.028298 0.00725,-0.074832 0.013195,-0.1043874 0.00594,-0.029554 0.011882,-0.090553 0.013195,-0.1351999 0.00131,-0.045276 0.00265,-0.086151 0.00331,-0.091181 v -0.059739 c 0,-0.027668 0.002,-0.098728 0.00594,-0.157209 0.00331,-0.059111 0.00725,-0.1974547 0.00924,-0.3081299 0.002,-0.1106751 0.0066,-0.2326693 0.010571,-0.2703997 0.00331,-0.038359 0.0066,-0.08678 0.0066,-0.1081595 0,-0.044018 0.00395,-0.058481 0.017164,-0.058481 0.00595,0 0.00924,-0.086004 0.00924,-0.070277 z"
       id="path7424"
       style="display:none;fill:#000000;stroke:none;stroke-width:0.000644293" /></g><g
     id="layer4"
     transform="translate(-0.01041552,-0.00318047)"><path
       style="fill:#ededed;fill-opacity:1;stroke:#c42141;stroke-width:0.0486833;stroke-dasharray:none;stroke-opacity:1;paint-order:markers fill stroke"
       d="m 0.0318312,3.1783628 h 0.19859821 l 0.27307255,0.00784 0.30617225,-0.00784 0.22342299,-0.047023 0.1158489,-0.094046 0.066199,-0.078371 0.020416,-0.082353 0.020963,-0.105739 V 2.6689486 l 0.016549,-0.1253943 c 0,0 0.078137,-3.09343405 0.099299,-2.31979384 0.004,0.14625931 0.115849,1.38717394 0.115849,1.38717394 l 0.016549,0.2116029 v 0.2194399 l 0.041375,0.2272772 0.041374,0.2978113 0.091025,0.2429514 0.074474,0.1489057 0.04969,0.1336625 0.037328,0.050295 0.078709,0.020242 0.1944912,0.012402 0.3850818,-0.00146 0.115936,-0.046238 c 0,0 0.1427269,-0.2119699 0.2109058,-0.229236 0.038089,-0.00965 0.053365,0.052769 0.053365,0.052769 l 0.07118,0.1365379 c 0.037139,0.031774 -0.026124,0.071816 0.083835,0.1035894 l 0.071257,-0.00413 0.1142156,-0.00242 0.1368918,1e-7 0.1310452,-0.00413 h 0.080849 l 0.077008,0.00172 0.066733,0.00827 0.074292,-0.00342 0.07943,-0.00413 0.093544,0.00827 0.090119,0.00585 0.097678,0.00413"
       id="path7436" /></g></svg>
