<?xml version="1.0" encoding="UTF-8" standalone="no"?>
<!-- Created with Inkscape (http://www.inkscape.org/) -->

<svg
   width="239.9601mm"
   height="238.28986mm"
   viewBox="0 0 239.9601 238.28986"
   version="1.1"
   id="SVGRoot"
   sodipodi:docname="C:\Users\DELL\AppData\Local\Temp\ink_ext_XXXXXX.svgPQSHA2"
   xmlns:inkscape="http://www.inkscape.org/namespaces/inkscape"
   xmlns:sodipodi="http://sodipodi.sourceforge.net/DTD/sodipodi-0.dtd"
   xmlns="http://www.w3.org/2000/svg"
   xmlns:svg="http://www.w3.org/2000/svg">
  <sodipodi:namedview
     id="namedview756"
     pagecolor="#000000"
     bordercolor="#999999"
     borderopacity="0.25"
     inkscape:showpageshadow="2"
     inkscape:pageopacity="1.0"
     inkscape:pagecheckerboard="0"
     inkscape:deskcolor="#d1d1d1"
     inkscape:document-units="mm"
     showgrid="false"
     inkscape:zoom="0.25"
     inkscape:cx="561.0"
     inkscape:cy="793.5"
     inkscape:window-width="1920"
     inkscape:window-height="974"
     inkscape:window-x="-11"
     inkscape:window-y="-11"
     inkscape:window-maximized="0"
     inkscape:current-layer="layer1"
     inkscape:pageshadow="0" />
  <defs
     id="defs751" />
  <g
     inkscape:label="Layer 1"
     inkscape:groupmode="layer"
     id="layer1"
     transform="translate(-34.283214,-99.275004)">
    <g
       id="g942"
       transform="translate(4.2263907,13.063389)">
      <path
         style="fill:none;stroke:#ffffff;stroke-width:11.3639;stroke-linecap:butt;stroke-linejoin:miter;stroke-dasharray:none;stroke-opacity:1"
         d="M 156.90969,265.81961 188.1094,265.5846"
         id="path1016"
         sodipodi:nodetypes="cc" />
      <path
         style="fill:none;stroke:#ffffff;stroke-width:11.2444;stroke-linecap:butt;stroke-linejoin:miter;stroke-dasharray:none;stroke-opacity:1"
         d="m 30.095431,265.17654 58.45949,0.40143"
         id="path1016-9"
         sodipodi:nodetypes="cc" />
      <path
         style="fill:none;stroke:#ffffff;stroke-width:11.2444;stroke-linecap:butt;stroke-linejoin:miter;stroke-dasharray:none;stroke-opacity:1"
         d="m 210.43975,265.70469 59.55986,-0.18328"
         id="path1016-3" />
      <path
         style="fill:none;stroke:#ffffff;stroke-width:11.2444;stroke-linecap:butt;stroke-linejoin:miter;stroke-dasharray:none;stroke-opacity:1"
         d="M 85.152141,265.4933 C 125.71359,266.72197 121.258,229.2145 123.06047,92.907718"
         id="path1018"
         sodipodi:nodetypes="cc" />
      <path
         style="fill:none;stroke:#ffffff;stroke-width:11.2444;stroke-linecap:butt;stroke-linejoin:miter;stroke-dasharray:none;stroke-opacity:1"
         d="m 158.1721,266.01447 c -38.99207,-8.8255 -34.33588,-67.2761 -34.59304,-172.918409"
         id="path1018-8"
         sodipodi:nodetypes="cc" />
      <path
         style="fill:none;stroke:#ffffff;stroke-width:11.2444;stroke-linecap:butt;stroke-linejoin:miter;stroke-dasharray:none;stroke-opacity:1"
         d="m 198.80416,226.99733 c -1.19764,11.38371 -0.72301,38.48922 -11.08528,38.58603"
         id="path1131"
         sodipodi:nodetypes="cc" />
      <path
         style="fill:none;stroke:#ffffff;stroke-width:11.2444;stroke-linecap:butt;stroke-linejoin:miter;stroke-dasharray:none;stroke-opacity:1"
         d="m 199.25518,228.40726 c 1.16087,11.211 1.70026,37.20703 11.74533,37.30249"
         id="path1131-2"
         sodipodi:nodetypes="cc" />
      <path
         id="path2259"
         style="fill:#ff0000;fill-opacity:0;fill-rule:evenodd;stroke:#ffffff;stroke-width:11.6929"
         d="M 242.59291,225.41327 A 93.799591,93.24176 0 0 1 148.80918,318.65503 93.799591,93.24176 0 0 1 54.993734,225.4448 93.799591,93.24176 0 0 1 148.74573,132.17152 93.799591,93.24176 0 0 1 242.59289,225.3502" />
      <path
         style="fill:#ffffff;fill-opacity:1;fill-rule:evenodd;stroke-width:2.92535"
         id="path3992"
         sodipodi:type="arc"
         sodipodi:cx="198.94151"
         sodipodi:cy="228.00938"
         sodipodi:rx="5.7523003"
         sodipodi:ry="7.6587772"
         sodipodi:start="0"
         sodipodi:end="6.2825089"
         sodipodi:open="true"
         sodipodi:arc-type="arc"
         d="m 204.69381,228.00938 a 5.7523003,7.6587772 0 0 1 -5.75132,7.65878 5.7523003,7.6587772 0 0 1 -5.75328,-7.65619 5.7523003,7.6587772 0 0 1 5.74938,-7.66136 5.7523003,7.6587772 0 0 1 5.75522,7.65359" />
      <path
         style="fill:#ffffff;fill-opacity:1;fill-rule:evenodd;stroke-width:2.9606"
         id="path3992-6"
         sodipodi:type="arc"
         sodipodi:cx="123.28453"
         sodipodi:cy="93.870392"
         sodipodi:rx="5.8917575"
         sodipodi:ry="7.6587772"
         sodipodi:start="0"
         sodipodi:end="6.2825089"
         sodipodi:open="true"
         sodipodi:arc-type="arc"
         d="m 129.17629,93.870392 a 5.8917575,7.6587772 0 0 1 -5.89076,7.658778 5.8917575,7.6587772 0 0 1 -5.89276,-7.656188 5.8917575,7.6587772 0 0 1 5.88877,-7.661366 5.8917575,7.6587772 0 0 1 5.89475,7.653595" />
    </g>
  </g>
</svg>
