<?xml version="1.0" encoding="UTF-8" standalone="no"?>
<!-- Created with Inkscape (http://www.inkscape.org/) -->

<svg
   width="15.9485"
   height="15.991271"
   viewBox="0 0 4.2197071 4.2310237"
   version="1.1"
   id="svg5"
   xml:space="preserve"
   xmlns="http://www.w3.org/2000/svg"
   xmlns:svg="http://www.w3.org/2000/svg"><defs
     id="defs2" /><g
     id="layer2"
     style="display:none"
     transform="translate(-0.01041552,-0.00318047)"><rect
       style="fill:#ededed;fill-opacity:1;stroke:none;stroke-width:0.161754;stroke-dasharray:none;stroke-opacity:1;paint-order:markers fill stroke"
       id="rect5383"
       width="4.2291989"
       height="4.2291989"
       x="0.0041341139"
       y="2.6225249e-09"
       ry="0" /></g><g
     id="layer3"
     transform="translate(-0.01041552,-0.00318047)"><ellipse
       style="fill:none;fill-opacity:1;fill-rule:evenodd;stroke:#403455;stroke-width:0.153184;stroke-dasharray:none;stroke-opacity:1"
       id="path1653"
       cx="2.1202691"
       cy="2.1186924"
       rx="2.0332615"
       ry="2.0389199" /></g><g
     id="layer4"
     transform="translate(-0.01041552,-0.00318047)"><path
       style="fill:none;fill-opacity:1;stroke:#c42141;stroke-width:0.0486833;stroke-dasharray:none;stroke-opacity:1;paint-order:markers fill stroke"
       d="m 0.0318312,3.1783628 h 0.19859821 l 0.27307255,0.00784 0.30617225,-0.00784 0.22342299,-0.047023 0.1158489,-0.094046 0.066199,-0.078371 0.020416,-0.082353 0.020963,-0.105739 V 2.6689486 l 0.016549,-0.1253943 c 0,0 0.078137,-3.09343405 0.099299,-2.31979384 0.004,0.14625931 0.115849,1.38717394 0.115849,1.38717394 l 0.016549,0.2116029 v 0.2194399 l 0.041375,0.2272772 0.041374,0.2978113 0.091025,0.2429514 0.074474,0.1489057 0.04969,0.1336625 0.037328,0.050295 0.078709,0.020242 0.1944912,0.012402 0.3850818,-0.00146 0.115936,-0.046238 c 0,0 0.1427269,-0.2119699 0.2109058,-0.229236 0.038089,-0.00965 0.053365,0.052769 0.053365,0.052769 l 0.07118,0.1365379 c 0.037139,0.031774 -0.026124,0.071816 0.083835,0.1035894 l 0.071257,-0.00413 0.1142156,-0.00242 0.1368918,1e-7 0.1310452,-0.00413 h 0.080849 l 0.077008,0.00172 0.066733,0.00827 0.074292,-0.00342 0.07943,-0.00413 0.093544,0.00827 0.090119,0.00585 0.097678,0.00413"
       id="path7436" /></g></svg>
